<svg xmlns="http://www.w3.org/2000/svg" width="205" height="36.5" viewBox="0 0 205 36.5">
  <g id="Group_1" data-name="Group 1" transform="translate(-16 -18)">
    <text id="Gateway" transform="translate(186 45)" fill="#3d3935" font-size="18" font-family="PlayfairDisplay-Regular, Playfair Display"><tspan x="-34.313" y="0">Gateway</tspan></text>
    <path id="Path_8336" data-name="Path 8336" d="M0,0V36" transform="translate(143.5 18.5)" fill="none" stroke="#c7c7c7" stroke-width="1"/>
    <g id="logo" transform="translate(16 18)">
      <path id="Fill_1" data-name="Fill 1" d="M3.146,11.939C.824,11.939,0,10.473,0,9.218A2.735,2.735,0,0,1,1.5,6.659,15.832,15.832,0,0,1,5.366,5.38l.1-.024c.569-.134.883-.231,1.215-.334l.015,0V3.5c0-2-.614-2.853-2.052-2.853a2.933,2.933,0,0,0-2.093.728c.739.821.811,1.592.208,2.228a1.458,1.458,0,0,1-1.051.49,1.222,1.222,0,0,1-.147-.009A1.332,1.332,0,0,1,.4,2.67C.4,1.173,2.341,0,4.82,0c2.767,0,4.17,1.193,4.17,3.545V9.568c0,.666.132,1.079.4,1.262a.786.786,0,0,0,.446.118,1.777,1.777,0,0,0,.371-.044l.037-.01a.242.242,0,0,1,.055-.006.247.247,0,0,1,.23.161.327.327,0,0,1-.166.418,3.6,3.6,0,0,1-1.671.422c-1.273,0-1.784-.512-1.888-1.89A4.885,4.885,0,0,1,3.146,11.939ZM6.7,5.81c-3.2.791-4.23,1.509-4.23,2.957a1.749,1.749,0,0,0,1.877,2A3.382,3.382,0,0,0,6.7,9.209Z" transform="translate(64.216 14.595)" fill="#3d3935"/>
      <path id="Fill_2" data-name="Fill 2" d="M5.769,12.064A5.756,5.756,0,0,1,0,6.07,5.932,5.932,0,0,1,5.769,0a5.8,5.8,0,0,1,5.745,5.97A5.931,5.931,0,0,1,5.769,12.064ZM5.645.643c-1.421,0-3.053.611-3.053,5.377,0,3.634,1.072,5.4,3.278,5.4,2.111,0,3.052-1.666,3.052-5.4C8.922,2.4,7.85.643,5.645.643Z" transform="translate(94.378 14.595)" fill="#3d3935"/>
      <path id="Fill_3" data-name="Fill 3" d="M7.257,16.427H.268A.268.268,0,0,1,0,16.159v-.041a.269.269,0,0,1,.246-.267c1.9-.179,2.156-.9,2.156-1.655V2.2C2.4.881,1.449.765.754.681A2.5,2.5,0,0,1,.238.586.321.321,0,0,1,.025.281V.268A.269.269,0,0,1,.294,0H6.822c3.225,0,7.069.836,7.069,4.82a4.358,4.358,0,0,1-1.584,3.444A8.714,8.714,0,0,1,6.647,9.84H4.97V14.2l0-4.35v4.348c0,.91.386,1.506,2.308,1.66a.271.271,0,0,1,.25.267v.037A.268.268,0,0,1,7.257,16.427ZM4.97.693V9.069H6.822c1.687,0,2.766-.353,3.4-1.11A4.79,4.79,0,0,0,11,4.77C11,2.754,10.512.693,6.9.693Z" transform="translate(38.919 9.73)" fill="#3d3935"/>
      <path id="Fill_4" data-name="Fill 4" d="M5.516,12.054C2.32,12.054,0,9.567,0,6.14,0,2.754,2.475,0,5.516,0a4.754,4.754,0,0,1,3.6,1.413A4.938,4.938,0,0,1,10.309,5.2l0,.062a.04.04,0,0,1-.041.037H2.54c-.007.231-.01.44-.006.589v.027c0,3.651,2.017,4.952,3.905,4.952,1.494,0,2.357-.717,3.344-1.955a.271.271,0,0,1,.213-.1.265.265,0,0,1,.155.049l.035.025a.268.268,0,0,1,.073.358A5.291,5.291,0,0,1,5.516,12.054ZM5.342.663c-1.526,0-2.506,1.373-2.76,3.866H7.771a4.4,4.4,0,0,0-.693-3.218A2.221,2.221,0,0,0,5.342.663Z" transform="translate(52.541 14.595)" fill="#3d3935"/>
      <path id="Fill_5" data-name="Fill 5" d="M4.6,4.665h0C2.483,4.072,1.66,3.472,1.66,2.525A1.89,1.89,0,0,1,3.7.663c1.388,0,1.982.663,3.447,3.113l.02.033a.04.04,0,0,0,.034.02h.2a.269.269,0,0,0,.268-.268V.04A.04.04,0,0,0,7.627,0H7.362a.267.267,0,0,0-.207.1L6.687.667A5.545,5.545,0,0,0,4.17,0C1.744,0,.05,1.5.05,3.647c0,2.015,1.336,2.77,3.644,3.394C5.935,7.654,6.73,8.292,6.73,9.479a2.063,2.063,0,0,1-2.185,1.912c-1.688,0-2.4-.627-4.019-3.534L.506,7.822A.04.04,0,0,0,.471,7.8h-.2A.269.269,0,0,0,0,8.07v3.944a.04.04,0,0,0,.04.04H.315a.272.272,0,0,0,.19-.079l.74-.74a6.387,6.387,0,0,0,3,.818,3.956,3.956,0,0,0,3-1.156,3.919,3.919,0,0,0,.969-2.69c0-1.837-.98-2.8-3.617-3.543" transform="translate(85.622 14.595)" fill="#3d3935"/>
      <path id="Fill_6" data-name="Fill 6" d="M1.373,10.432c0,.608-.155.807-1.122.868a.268.268,0,0,0,.017.535H5.049a.264.264,0,0,0,.264-.264.268.268,0,0,0-.254-.268c-1.107-.053-1.393-.232-1.393-.872V3.422c.787-1.308,1.353-1.993,2.307-2.2a2.084,2.084,0,0,0-.077.525A1.384,1.384,0,0,0,7.342,3.192,1.372,1.372,0,0,0,8.763,1.746,1.719,1.719,0,0,0,6.842,0C5.68,0,4.569.666,3.615,2.261V.458A.327.327,0,0,0,3.28.131L.268.211a.266.266,0,0,0-.26.267V.518A.265.265,0,0,0,.231.781c1,.142,1.143.62,1.142,1.115v8.536" transform="translate(75.892 14.595)" fill="#3d3935"/>
      <path id="Fill_7" data-name="Fill 7" d="M3.364.079a.269.269,0,0,1,.268.267l.011,2A4.37,4.37,0,0,1,7.808,0h.028c1.985,0,3.123,1.266,3.123,3.472v6.9c0,.608.155.807,1.122.868a.268.268,0,0,1-.017.535H7.769a.271.271,0,0,1-.024-.541c.78-.067.9-.264.9-.863V4.145c0-2.057-.585-2.859-2.086-2.859A3.242,3.242,0,0,0,4.2,2.915a5.055,5.055,0,0,0-.552.956l.032,6.5c0,.6.121.8.879.862a.271.271,0,0,1-.024.542H.268a.268.268,0,0,1-.017-.535c.968-.061,1.122-.26,1.122-.868V1.853c0-.5-.139-.978-1.148-1.121A.266.266,0,0,1,0,.468V.429A.268.268,0,0,1,.261.16l3.1-.081" transform="translate(107.027 14.595)" fill="#3d3935"/>
      <path id="Fill_8" data-name="Fill 8" d="M25.586,2.307c7.57,4.313,9.332,13.984,4.065,23.768-4.629,8.6-14.736,12.274-22.267,7.9s-9-16.6-5.766-23.628c4.7-10.209,15.6-12.8,23.968-8.036" fill="#007fa3"/>
      <path id="Fill_9" data-name="Fill 9" d="M9.068,24.3a2.157,2.157,0,0,1-.581-.081,1.543,1.543,0,0,1-.768-.454,1.415,1.415,0,0,1-.3-.7,1.732,1.732,0,0,1,.3-1.268,1.6,1.6,0,0,1,1.291-.726,1.439,1.439,0,0,1,.27.027,1.82,1.82,0,0,1,.751.355A1.746,1.746,0,0,1,10.7,22.8a1.412,1.412,0,0,1-.529,1.129A1.726,1.726,0,0,1,9.068,24.3Zm-.619-4.46a.848.848,0,0,1-.119-.007,1.148,1.148,0,0,1-.706-.34,1.19,1.19,0,0,1-.293-.715l-.02-.25c-.056-.249-.316-10.875-.267-10.933.032-1.019,1.332-1.381,2.436-1.381a4.431,4.431,0,0,1,.86.079c.958.193.913,1.22.855,2.52-.012.264-.024.536-.029.819,0,.023-.056,2.287-.16,4.635a8.881,8.881,0,0,0,3.707-1.013,5.437,5.437,0,0,0,3.355-5.212A4.749,4.749,0,0,0,16.32,4.513a7.489,7.489,0,0,0-5.056-1.683c-4.594,0-6.469,1.249-8.442,2.881-.228.188-.426.373-.618.552a7.725,7.725,0,0,1-.585.512,1.147,1.147,0,0,1-.655.183.886.886,0,0,1-.877-.5,2.146,2.146,0,0,1,.592-1.98A11.782,11.782,0,0,1,3.894,1.84,13.809,13.809,0,0,1,10.274.009C10.506,0,10.721,0,10.931,0a14.328,14.328,0,0,1,4.282.577,9.489,9.489,0,0,1,4.364,2.787l.021.021a7.515,7.515,0,0,1,1.686,5.952,7.3,7.3,0,0,1-1.221,3.176,8.652,8.652,0,0,1-2.7,2.524,13.065,13.065,0,0,1-6.474,1.549c-.02.4-.092,1.635-.129,1.836a1.311,1.311,0,0,1-.284.62,2.162,2.162,0,0,1-1.111.657A3.571,3.571,0,0,1,8.448,19.837Z" transform="translate(5.838 6.811)" fill="#fff"/>
    </g>
  </g>
</svg>
