<svg xmlns="http://www.w3.org/2000/svg" xmlns:xlink="http://www.w3.org/1999/xlink" width="601" height="128" viewBox="0 0 601 128">
  <defs>
    <clipPath id="clip-path">
      <rect id="Rectangle_380" data-name="Rectangle 380" width="600" height="128" transform="translate(347 -293)" fill="#b5e1f5"/>
    </clipPath>
  </defs>
  <g id="Group_2513" data-name="Group 2513" transform="translate(0 -80)">
    <g id="Group_2512" data-name="Group 2512">
      <g id="Group_2511" data-name="Group 2511">
        <g id="Group_2510" data-name="Group 2510">
          <rect id="Rectangle_2" data-name="Rectangle 2" width="600" height="128" transform="translate(0 80)" fill="#b5e1f5"/>
          <g id="Group_2499" data-name="Group 2499" transform="translate(-346 373)">
            <g id="Mask_Group_1" data-name="Mask Group 1" clip-path="url(#clip-path)">
              <g id="undraw_completing_6bhr" transform="translate(549.628 -293)">
                <path id="Path_8337" data-name="Path 8337" d="M189.292,72.868,154.03,102.894l-7.715,6.569-21.59-.132L106.3,109.22l-1.53-.009-3.739-4.392L86.164,87.36,78.7,78.594,76.458,75.96l-1.623-1.907-3.617-4.248-5.856-6.877,5.931-5.05,5.665-4.824,4.072-3.467L132.3,5.932Z" fill="#f2f2f2"/>
                <rect id="Rectangle_381" data-name="Rectangle 381" width="67.581" height="48.856" transform="translate(16.512 17.351)" fill="#3f3d56"/>
                <rect id="Rectangle_382" data-name="Rectangle 382" width="63.666" height="0.34" transform="translate(98.563 118.297)" fill="#3f3d56"/>
                <path id="Path_8338" data-name="Path 8338" d="M197.794,121.878H146.835s-1.033-15.15,5.079-15.322S157.337,113.27,165,103.8s16.958-8.952,18.163-3.357-2.324,10.071,4.132,8.694S203.045,111.377,197.794,121.878Z" transform="translate(-4.766 -12.604)" fill="#0479ac"/>
                <path id="Path_8339" data-name="Path 8339" d="M171.454,121.882l-.172-.007c.4-9.975,2.49-16.383,4.172-20a18.159,18.159,0,0,1,3.6-5.537l.114.129a18.033,18.033,0,0,0-3.568,5.495C173.932,105.562,171.854,111.945,171.454,121.882Z" transform="translate(-4.766 -12.604)" fill="#f2f2f2"/>
                <path id="Path_8340" data-name="Path 8340" d="M189.9,121.9l-.165-.048a26.706,26.706,0,0,1,6.724-11.186l.116.127A26.527,26.527,0,0,0,189.9,121.9Z" transform="translate(-4.766 -12.604)" fill="#f2f2f2"/>
                <path id="Path_8341" data-name="Path 8341" d="M154.862,121.89l-.171-.024A18.75,18.75,0,0,0,153,110.907a15.091,15.091,0,0,0-2.662-3.884l.119-.124a15.279,15.279,0,0,1,2.7,3.932A18.923,18.923,0,0,1,154.862,121.89Z" transform="translate(-4.766 -12.604)" fill="#f2f2f2"/>
                <rect id="Rectangle_383" data-name="Rectangle 383" width="187.423" height="0.34" transform="translate(7.32 109.275)" fill="#3f3d56"/>
                <ellipse id="Ellipse_2" data-name="Ellipse 2" cx="0.611" cy="0.977" rx="0.611" ry="0.977" transform="translate(124.837 8.907)" fill="#ffb8b8"/>
                <path id="Path_8354" data-name="Path 8354" d="M105.713,140.433H4.937s-2.043-29.96,10.044-30.3S25.7,123.41,40.855,104.685s33.535-17.7,35.919-6.639-4.6,19.917,8.171,17.193S116.1,119.665,105.713,140.433Z" transform="translate(-4.766 -12.604)" fill="#0479ac"/>
                <path id="Path_8355" data-name="Path 8355" d="M53.624,140.44l-.34-.014c.793-19.726,4.924-32.4,8.25-39.558,3.611-7.773,7.091-10.919,7.126-10.95l.226.254c-.034.031-3.474,3.146-7.056,10.866C58.523,108.167,54.414,120.789,53.624,140.44Z" transform="translate(-4.766 -12.604)" fill="#f2f2f2"/>
                <path id="Path_8356" data-name="Path 8356" d="M90.1,140.481l-.327-.1a52.812,52.812,0,0,1,13.3-22.122l.229.252A52.453,52.453,0,0,0,90.1,140.481Z" transform="translate(-4.766 -12.604)" fill="#f2f2f2"/>
                <path id="Path_8357" data-name="Path 8357" d="M20.809,140.457l-.337-.047a37.08,37.08,0,0,0-3.335-21.673,29.842,29.842,0,0,0-5.264-7.681l.236-.246a30.216,30.216,0,0,1,5.333,7.776A37.42,37.42,0,0,1,20.809,140.457Z" transform="translate(-4.766 -12.604)" fill="#f2f2f2"/>
                <rect id="Rectangle_385" data-name="Rectangle 385" width="142.482" height="0.34" transform="translate(0 127.66)" fill="#3f3d56"/>
                <path id="Path_8358" data-name="Path 8358" d="M100.946,78.98H21.109V15.655h79.838Zm-79.5-.34h79.157V16H21.449Z" transform="translate(-4.766 -12.604)" fill="#3f3d56"/>
                <circle id="Ellipse_3" data-name="Ellipse 3" cx="2.894" cy="2.894" r="2.894" transform="translate(20.428 26.202)" fill="#0479ac"/>
                <circle id="Ellipse_4" data-name="Ellipse 4" cx="2.894" cy="2.894" r="2.894" transform="translate(28.599 26.202)" fill="#d0cde1"/>
                <circle id="Ellipse_5" data-name="Ellipse 5" cx="2.894" cy="2.894" r="2.894" transform="translate(36.77 26.202)" fill="#0479ac" opacity="0.5"/>
                <circle id="Ellipse_6" data-name="Ellipse 6" cx="2.894" cy="2.894" r="2.894" transform="translate(44.941 26.202)" fill="#f2f2f2"/>
                <rect id="Rectangle_386" data-name="Rectangle 386" width="23.832" height="2.724" transform="translate(56.176 27.735)" fill="#f2f2f2"/>
                <circle id="Ellipse_7" data-name="Ellipse 7" cx="7.831" cy="7.831" r="7.831" transform="translate(41.196 40.502)" fill="#f2f2f2"/>
                <path id="Path_8359" data-name="Path 8359" d="M53.825,63.293l-3.919-3.919a.681.681,0,0,1,.963-.963L53.76,61.3l9.224-10.518a.681.681,0,0,1,1.024.9Z" transform="translate(-4.766 -12.604)" fill="#0479ac"/>
              </g>
            </g>
            <g id="undraw_my_app_grf2" transform="translate(641.326 -282.877)">
              <path id="Path_8363" data-name="Path 8363" d="M127.065,80.979l-4.278,8.469L110,95.263c-1.366,2.308-5.707,2.485-6.022.992-.354-1.675,5.271-4.37,5.271-4.37l10.7-7.236.936-6.23Z" transform="translate(-103.958 -49.676)" fill="#a0616a"/>
              <path id="Path_8364" data-name="Path 8364" d="M75.052,113.26l.789,6.311-4.576.316-.473-6.627Z" transform="translate(-52.449 -25.123)" fill="#a0616a"/>
              <path id="Path_8365" data-name="Path 8365" d="M114.15,143.177a12.392,12.392,0,0,0,1.129-1.381c.656-.907,1.238,3.748,1.238,3.748a8.447,8.447,0,0,1,.473,2.84c-.158.947-3.787.947-4.418.789a29.848,29.848,0,0,0-3.787,0h-4.734c-4.1-1.893,0-3.156,0-3.156,1.262-.158,5.522-4.1,5.522-4.1l.947-1.736c.631-.158,1.262,2.209,1.262,2.209Z" transform="translate(-92.179 -49.676)" fill="#2f2e41"/>
              <path id="Path_8366" data-name="Path 8366" d="M63.218,113.339l.789,6.311-4.576.316-.473-6.627Z" transform="translate(-28.781 -25.123)" fill="#a0616a"/>
              <path id="Path_8367" data-name="Path 8367" d="M102.316,143.256a12.391,12.391,0,0,0,1.129-1.381c.656-.907,1.238,3.748,1.238,3.748a7.318,7.318,0,0,1,.473,2.682c-.158.947-3.787.947-4.418.789a25.672,25.672,0,0,0-3.787.158H92.218c-4.1-1.893,0-3.156,0-3.156,1.262-.158,5.522-4.1,5.522-4.1l.947-1.736c.631-.158,1.262,2.209,1.262,2.209Z" transform="translate(-68.511 -49.676)" fill="#2f2e41"/>
              <path id="Path_8368" data-name="Path 8368" d="M109.512,97.183c.631.789.316,3.471.316,3.471s1.1,8.678.631,9.467.316,1.42.789,2.525a25.2,25.2,0,0,1,.947,3.787c2.682,2.209,2.525,12.307,2.525,12.307l.947,8.994c-.316.947-4.734,1.1-5.365.947s-2.525-14.358-2.525-14.358l-4.26-8.047s.315,21.459.315,22.405-4.26.473-5.207.473-.947-15.778-.947-15.778l-.947-4.1L91.682,100.5V98.288l.789-1.1S108.881,96.394,109.512,97.183Z" transform="translate(-80.282 -49.676)" fill="#2f2e41"/>
              <ellipse id="Ellipse_8" data-name="Ellipse 8" cx="4.891" cy="4.891" rx="4.891" ry="4.891" transform="translate(17.396 1.907)" fill="#a0616a"/>
              <path id="Path_8369" data-name="Path 8369" d="M102.333,58.762c.991,2.208.4,5.292-1.578,8.678l8.047-3.787-1.262-1.1.316-3.156Z" transform="translate(-82.491 -49.676)" fill="#a0616a"/>
              <path id="Path_8370" data-name="Path 8370" d="M103.122,63.812a5.049,5.049,0,0,0-2.046,2.949,27.945,27.945,0,0,0-1.2,6.677l-.382,6.784L94.759,98.209c4.1,3.471,6.469,2.682,11.992-.158S112.9,99,112.9,99s.473-.158,0-.631,0,0,.473-.473,0,0-.158-.473,0-.158.158-.316-.631-1.578-.631-1.578l1.262-11.834,1.578-16.725c-1.893-2.367-7.258-4.418-7.258-4.418l-4.891,3.471c-1.578.631-.316-1.893-.316-1.893Z" transform="translate(-83.28 -49.676)" fill="#0479ac"/>
              <path id="Path_8371" data-name="Path 8371" d="M102.04,76.987l.631,9.467L94.624,97.972c0,2.682-1.42,3.313-1.42,3.313a20.858,20.858,0,0,1-1.42-2.682,3.063,3.063,0,0,1,.473-3.156l5.522-11.676-2.367-5.838Z" transform="translate(-67.13 -49.676)" fill="#a0616a"/>
              <path id="Path_8372" data-name="Path 8372" d="M97.448,67.046c2.682.947,3.156,11.2,3.156,11.2-3.156-1.736-6.943,1.1-6.943,1.1s-.789-2.682-1.736-6.154a6.03,6.03,0,0,1,1.262-5.68A4.3,4.3,0,0,1,97.448,67.046Z" transform="translate(-65.22 -49.676)" fill="#0479ac"/>
              <path id="Path_8373" data-name="Path 8373" d="M109.009,57.973c-.623-.5-1.472.407-1.472.407l-.5-4.483a17.773,17.773,0,0,1-5.106-.125c-1.993-.5-2.3,1.806-2.3,1.806a15.991,15.991,0,0,1-.062-2.8c.125-1.121,1.744-2.242,4.608-2.989s4.359,2.491,4.359,2.491C110.526,53.275,109.632,58.472,109.009,57.973Z" transform="translate(-82.226 -49.676)" fill="#2f2e41"/>
            </g>
          </g>
        </g>
      </g>
    </g>
  </g>
</svg>
